HIERARCHY
ROOT Hips
{
    OFFSET 0.000000 0.000000 0.000000
    CHANNELS 6 Xposition Yposition Zposition Zrotation Xrotation Yrotation
        JOINT Chest
        {
            OFFSET -0.000000 29.765863 -0.000000
            CHANNELS 3 Zrotation Xrotation Yrotation
            JOINT Neck
            {
                OFFSET -0.000000 22.048780 0.000000
                CHANNELS 3 Zrotation Xrotation Yrotation
                JOINT Head
                {
                    OFFSET -0.000000 10.266670 0.000000
                    CHANNELS 3 Zrotation Xrotation Yrotation
                    End Site
                    {
                        OFFSET -0.000000 15.866677 0.000000
                    }
                }
            }
            JOINT LeftCollar
            {
                OFFSET -0.000000 22.048780 0.000000
                CHANNELS 3 Zrotation Xrotation Yrotation
                JOINT LeftShoulder
                {
                    OFFSET 18.666672 -0.000000 0.000000
                    CHANNELS 3 Zrotation Xrotation Yrotation
                    JOINT LeftElbow
                    {
                        OFFSET 23.656216 0.000000 0.000000
                        CHANNELS 3 Zrotation Xrotation Yrotation
                        JOINT LeftWrist
                        {
                            OFFSET 24.590921 0.000000 0.000000
                            CHANNELS 3 Zrotation Xrotation Yrotation
                            End Site
                            {
                                OFFSET 0.000000 -14.000008 0.000000
                            }
                        }
                    }
                }
            }
            JOINT RightCollar
            {
                OFFSET -0.000000 22.048780 0.000000
                CHANNELS 3 Zrotation Xrotation Yrotation
                JOINT RightShoulder
                {
                    OFFSET -18.666672 0.000000 0.000000
                    CHANNELS 3 Zrotation Xrotation Yrotation
                    JOINT RightElbow
                    {
                        OFFSET -23.656216 0.000000 0.000000
                        CHANNELS 3 Zrotation Xrotation Yrotation
                        JOINT RightWrist
                        {
                            OFFSET -24.590921 0.000000 0.000000
                            CHANNELS 3 Zrotation Xrotation Yrotation
                            End Site
                            {
                                OFFSET -0.000000 -14.000008 0.000000
                            }
                        }
                    }
                }
            }
        }
    JOINT LeftHip
    {
        OFFSET 11.200002 0.000000 0.000000
        CHANNELS 3 Zrotation Xrotation Yrotation
        JOINT LeftKnee
        {
            OFFSET -0.000000 -37.692356 0.000000
            CHANNELS 3 Zrotation Xrotation Yrotation
            JOINT LeftAnkle
            {
                OFFSET -0.000000 -39.524944 0.000000
                CHANNELS 3 Zrotation Xrotation Yrotation
                End Site
                {
                    OFFSET -0.000000 -4.666668 15.866677
                }
            }
        }
    }
    JOINT RightHip
    {
        OFFSET -11.200002 0.000000 0.000000
        CHANNELS 3 Zrotation Xrotation Yrotation
        JOINT RightKnee
        {
            OFFSET -0.000000 -37.692356 0.000000
            CHANNELS 3 Zrotation Xrotation Yrotation
            JOINT RightAnkle
            {
                OFFSET -0.000000 -39.524944 0.000000
                CHANNELS 3 Zrotation Xrotation Yrotation
                End Site
                {
                    OFFSET -0.000000 -4.666668 15.866677
                }
            }
        }
    }
}
MOTION
Frames:    10
Frame Time:    0.010000
-45.286312    83.465477    -40.780910    1.673999    5.545129    -62.915821    -4.445929    3.448076    2.699313    2.969049    13.307553    12.809286    -2.379189    -26.868416    13.635785    -11.546812    -0.426508    4.411866    -60.683777    31.169966    -11.329283    11.477357    -3.342852    -32.564102    103.783104    -16.249851    70.591431    20.646748    -1.719119    -9.264718    -10.336029    57.082134    89.254463    0.519772    0.155106    37.192703    -74.152588    -8.489147    -2.084952    14.450323    -21.813198    -0.849481    3.559545    18.524122    5.366567    -0.465440    -2.962497    9.077553    9.606023    -4.852211    10.797804    -0.577129    11.252930    11.647005    1.447392    -8.156481    -21.124947    
-45.306717    83.456680    -40.826939    1.616463    5.541456    -62.815586    -4.259036    2.080798    2.752228    2.947174    16.871161    11.911265    0.056344    -29.834927    12.253353    -12.585258    -0.370539    2.339066    -61.017601    30.993635    -8.816741    11.272934    -3.282616    -32.714252    103.953278    -14.634658    70.302734    21.104441    -1.870542    -10.341022    -10.673090    58.173771    88.604942    0.428218    0.128761    37.071339    -74.091171    -8.476673    -2.179098    14.458248    -21.819992    -0.759314    3.647378    18.543941    5.147398    -0.528053    -2.978483    9.098756    9.667871    -4.795708    10.815315    -0.580797    11.245931    11.538170    1.468713    -8.177062    -21.115868    
-45.299900    83.425972    -40.858501    1.604818    5.549460    -62.771122    -4.296178    2.617259    2.761790    3.012269    15.799736    11.878863    -0.059114    -29.260071    12.279832    -12.229095    -0.311032    2.558772    -60.942249    31.027088    -9.571936    11.397064    -3.315178    -32.701916    103.984413    -15.199098    70.761826    20.980970    -1.888276    -10.308496    -10.380342    57.701973    88.627686    0.573030    0.182746    37.082180    -74.228821    -8.393990    -2.002419    14.495822    -21.862083    -0.712688    3.642112    18.578905    5.006645    -0.421029    -2.960574    9.123508    9.717311    -4.818713    10.826612    -0.577371    11.285614    11.519819    1.391706    -8.157965    -21.151657    
-45.309849    83.421013    -40.893215    1.579674    5.551422    -62.718555    -4.282355    2.453488    2.786521    3.009196    16.165340    11.808251    -0.052735    -29.416929    12.213858    -12.335328    -0.295943    2.522107    -60.944557    31.024654    -9.338813    11.393934    -3.360204    -32.766769    104.095238    -14.899782    70.851799    21.054653    -1.930100    -10.300167    -10.491296    57.872967    88.644577    0.627433    0.199051    37.055740    -74.271461    -8.342438    -1.957637    14.517155    -21.882730    -0.657043    3.669027    18.603216    4.866736    -0.398030    -2.958946    9.142791    9.757467    -4.809327    10.835768    -0.574534    11.300990    11.480338    1.363934    -8.157404    -21.170671    
-45.322498    83.417580    -40.934597    1.550430    5.553805    -62.659092    -4.270504    2.301237    2.812547    3.009811    16.510231    11.737776    -0.055034    -29.556717    12.151735    -12.431778    -0.255900    2.504925    -60.936771    31.003532    -9.136316    11.344269    -3.361556    -32.783264    104.196907    -14.644726    70.961586    21.135376    -1.944747    -10.280114    -10.602595    58.009293    88.664063    0.713098    0.228662    37.037727    -74.368011    -8.278243    -1.918278    14.543344    -21.907017    -0.592661    3.698313    18.633221    4.705833    -0.368802    -2.955659    9.167677    9.803378    -4.799078    10.845640    -0.570100    11.319777    11.439555    1.330621    -8.156437    -21.194393    
-45.337315    83.415024    -40.981628    1.517185    5.556608    -62.594315    -4.260307    2.169225    2.838434    3.014083    16.822723    11.665722    -0.051467    -29.680460    12.089119    -12.510424    -0.279136    2.497977    -60.963726    31.030750    -8.900100    11.423841    -3.379518    -32.884022    104.261360    -14.339512    71.165741    21.220837    -1.925398    -10.255948    -10.712285    58.094486    88.689720    0.805567    0.273636    37.020947    -74.483513    -8.205893    -1.890492    14.574298    -21.934420    -0.521434    3.729007    18.669159    4.527733    -0.333496    -2.950915    9.198102    9.854410    -4.787864    10.856034    -0.563920    11.341741    11.399893    1.291884    -8.155049    -21.223604    
-45.353699    83.412666    -41.033123    1.480112    5.559804    -62.526207    -4.251614    2.064580    2.863317    3.021310    17.089890    11.594204    -0.042858    -29.783792    12.028203    -12.572702    -0.242252    2.498914    -60.969509    31.008242    -8.731653    11.344515    -3.351892    -32.864670    104.443810    -14.105427    71.336449    21.299934    -1.911255    -10.230670    -10.849685    58.154625    88.769341    0.854999    0.267978    36.968613    -74.601372    -8.137747    -1.848624    14.609748    -21.964092    -0.445704    3.760192    18.710917    4.337104    -0.292408    -2.944781    9.233755    9.909750    -4.775552    10.867051    -0.555877    11.366614    11.363831    1.248455    -8.153357    -21.258745    
-45.371021    83.409866    -41.087849    1.439603    5.563344    -62.456974    -4.244645    1.992801    2.886886    3.030857    17.298933    11.529059    -0.029631    -29.861397    11.974307    -12.609589    -0.278162    2.512111    -61.015968    31.044724    -8.540727    11.438522    -3.379319    -32.973274    104.532173    -13.820742    71.585449    21.359510    -1.956801    -10.202213    -11.039381    58.238583    88.938324    0.789141    0.261354    36.869598    -74.653168    -8.093468    -1.850911    14.649196    -21.995224    -0.367863    3.791165    18.758226    4.138166    -0.246237    -2.937567    9.274831    9.968544    -4.762208    10.879364    -0.545837    11.394062    11.333142    1.200792    -8.151069    -21.300444    
-45.388687    83.406097    -41.144691    1.396038    5.567103    -62.388973    -4.238873    1.955891    2.909320    3.041723    17.446905    11.472722    -0.012023    -29.913982    11.929588    -12.623905    -0.318396    2.535366    -61.075596    31.070755    -8.368214    11.445113    -3.383591    -33.014656    104.696747    -13.587547    71.816048    21.420303    -1.932906    -10.171392    -11.170612    58.245098    89.028374    0.930937    0.332740    36.876350    -74.901062    -7.991326    -1.864401    14.692086    -22.026787    -0.291153    3.821131    18.810604    3.935446    -0.195939    -2.929561    9.321795    10.029856    -4.747893    10.893914    -0.533625    11.423851    11.309258    1.149554    -8.147989    -21.348948    
-45.406143    83.400978    -41.202728    1.349979    5.571118    -62.324741    -4.233798    1.952965    2.931390    3.053207    17.536306    11.427262    0.007928    -29.944546    11.895073    -12.619556    -0.318203    2.564428    -61.125427    31.066353    -8.260184    11.393952    -3.373999    -33.011620    104.878120    -13.416973    72.022774    21.462826    -1.940519    -10.140687    -11.360789    58.239838    89.225624    0.928295    0.306043    36.801357    -75.034805    -7.910438    -1.852051    14.737848    -22.057734    -0.218916    3.849561    18.867182    3.732766    -0.142490    -2.920939    9.375878    10.093065    -4.733126    10.912334    -0.519199    11.456059    11.292652    1.095317    -8.143957    -21.403973    
